<?xml version="1.0" encoding="utf-8"?>
<!-- Generator: Adobe Illustrator 16.0.0, SVG Export Plug-In . SVG Version: 6.00 Build 0)  -->
<!DOCTYPE svg PUBLIC "-//W3C//DTD SVG 1.1//EN" "http://www.w3.org/Graphics/SVG/1.1/DTD/svg11.dtd">
<svg version="1.1" id="Capa_1" xmlns="http://www.w3.org/2000/svg" xmlns:xlink="http://www.w3.org/1999/xlink" x="0px" y="0px"
	 width="1904px" height="1808px" viewBox="0 0 1904 1808" enable-background="new 0 0 1904 1808" xml:space="preserve">
<circle fill="#FFFFFF" cx="994.012" cy="951.006" r="725.004"/>
<ellipse cx="434.093" cy="436.639" rx="1.745" ry="5.236"/>
<path d="M1818,768c-2.58,0-2.58,4,0,4S1820.58,768,1818,768z"/>
<path d="M1518.37,1163.197c-1.943-12.031-8.27-22.215-18.291-29.446c-10.079-7.275-21.617-10.04-33.708-8.086
	c-12.027,1.943-22.208,8.268-29.443,18.293l-124.523,172.532c-12.782,17.71-28.467,32.358-46.613,43.533
	c-18.168,11.183-37.633,18.511-57.856,21.777c-20.405,3.3-41.364,2.816-62.39-1.444c-19.817-4.018-38.648-11.798-55.986-23.131
	c-0.056-0.046-0.114-0.093-0.175-0.144c-8.75-7.051-30.727-26.133-45.78-50.946c-10.452-17.222-17.269-36.341-20.841-58.446
	c-3.269-20.226-2.446-41.009,2.442-61.77c4.893-20.749,13.854-40.248,26.635-57.955l124.524-172.533
	c0.936-1.294,1.829-2.691,2.716-4.246l31.421-43.536c15.81-21.903,26.677-45.928,32.306-71.424
	c5.558-25.284,6.348-50.699,2.344-75.549c-4.024-24.828-12.778-48.698-26.027-70.961c-13.362-22.408-31.245-41.787-53.152-57.6
	c-27.72-20.007-58.288-32.018-90.851-35.699c-8.322-0.943-16.702-1.423-24.903-1.423c-16.964,0-33.806,2.043-50.282,6.086
	c-1.428-25.384-7.733-50.127-18.829-73.79c-14.032-29.918-35.185-55.22-62.873-75.203c-21.901-15.807-46.039-26.766-71.749-32.578
	c-25.582-5.771-51.199-6.664-76.022-2.653c-24.869,4.019-48.866,12.924-71.317,26.466c-22.555,13.595-42.012,31.601-57.832,53.52
	L392.847,841.105c-7.234,10.023-10.03,21.678-8.085,33.707c1.946,12.028,8.271,22.207,18.297,29.445
	c2.748,1.98,5.724,3.673,8.853,5.033c4.027,2.085,8.664,2.895,11.13,3.194c3.857,0.558,7.806,0.602,11.757,0.13l1.794-0.005
	l0.054-0.252c0.037-0.005,0.073-0.012,0.111-0.017c12.026-1.942,22.209-8.268,29.444-18.293l248.467-344.263
	c8.918-12.356,19.576-22.346,31.685-29.696c12.159-7.395,25.335-12.278,39.16-14.512c13.854-2.238,27.774-1.843,41.454,1.173
	c13.509,2.986,26.599,9.004,38.904,17.885c11.795,8.513,21.515,18.977,28.883,31.092c7.392,12.178,12.277,25.361,14.517,39.162
	c2.225,13.822,1.741,27.873-1.436,41.748c-3.179,13.831-9.304,27.096-18.203,39.426l-88.446,122.547
	c-7.235,10.021-10.031,21.678-8.087,33.71c1.944,12.028,8.271,22.209,18.292,29.439c10.076,7.274,21.592,10.045,33.708,8.088
	c12.028-1.946,22.209-8.271,29.441-18.292l88.291-122.33c9.77-12.5,21.003-22.493,33.403-29.712
	c12.476-7.276,25.631-12.068,39.1-14.244c13.399-2.165,27.077-1.733,40.76,1.286c13.509,2.984,26.326,8.807,38.097,17.302
	c22.369,16.144,35.842,37.522,41.189,65.352c5.333,27.803-0.754,55.942-18.606,86.009l-146.019,202.314l0.201,0.208l-12.473,17.28
	c-20.074,27.815-33.962,58.293-41.277,90.586c-7.306,32.184-8.513,64.729-3.587,96.729c4.913,31.989,15.82,62.587,32.42,90.952
	c15.671,26.76,36.394,50.392,61.602,70.252c2.052,1.956,4.3,3.816,6.692,5.542l0.236,0.166
	c28.171,19.467,58.79,32.808,91.011,39.651c17.912,3.8,36.048,5.728,53.907,5.728c0.002,0,0.002,0,0.003,0
	c14.169,0,28.511-1.214,42.617-3.606c31.924-5.406,62.434-16.803,90.675-33.871c28.348-17.117,52.901-39.901,72.977-67.718
	l124.525-172.532C1517.519,1186.876,1520.314,1175.221,1518.37,1163.197z"/>
<path d="M1611.928,1077.844c-17.961,24.887-52.696,30.501-77.58,12.541c-24.884-17.962-30.499-52.695-12.537-77.582
	c17.961-24.883,52.695-30.496,77.579-12.536C1624.273,1018.225,1629.889,1052.957,1611.928,1077.844z"/>
</svg>
